<svg width="60" height="40" viewBox="0 0 60 40" fill="none" xmlns="http://www.w3.org/2000/svg">
<path d="M30.2353 36.5V4.11765M30.2353 4.11765H32.2941L39 18.5M30.2353 4.11765H28.1765L21.5 18.5" stroke="white" stroke-width="3"/>
<path d="M49.2353 2.61764L49.2353 35M49.2353 35L47.1765 35L40.4706 20.6176M49.2353 35L51.2941 35L57.9706 20.6176" stroke="white" stroke-width="3"/>
<path d="M20.5 4.5L18 3L1 36H27V33.5H5.61972L20.5 4.5Z" fill="white"/>
<path d="M23.5 30.5V28.5H12.5V30.5H23.5Z" fill="white"/>
<path d="M20.5 4.5L18 3L1 36H27V33.5H5.61972L20.5 4.5Z" stroke="white"/>
<path d="M23.5 30.5V28.5H12.5V30.5H23.5Z" stroke="white"/>
</svg>
